<?xml version="1.0" encoding="UTF-8" standalone="no"?>
<!-- Created with Inkscape (http://www.inkscape.org/) -->
<svg
   xmlns:svg="http://www.w3.org/2000/svg"
   xmlns="http://www.w3.org/2000/svg"
   version="1.0"
   width="517.35498"
   height="481.38901"
   viewBox="0 0 517.355 481.389"
   id="svg2"
   xml:space="preserve"><defs
   id="defs208" />
	
		<g
   id="Layer_3">
			<g
   id="g7">
				<path
   d="M 509.197,399.829 C 510.401,399.461 511.685,399.118 512.641,398.999 L 515.921,398.589 L 514.035,395.873 C 507.561,386.552 496.327,382.997 487.64,381.67 C 489.842,380.379 494.973,377.371 494.973,377.371 L 492.094,375.636 C 480.927,368.877 467.138,369.282 457.071,369.577 C 457.071,369.577 455.911,369.601 454.766,369.625 C 455.266,368.027 455.822,367.224 458.909,364.96 L 461.288,363.215 L 458.786,361.652 C 447.987,354.902 434.855,355.593 428.652,358.23 C 427.591,357.9 416.154,354.337 411.974,353.036 C 412.005,352.996 412.046,352.951 412.077,352.912 C 413.258,351.447 414.277,350.182 418.031,348.097 L 423.354,345.139 L 417.313,344.365 C 408.527,343.239 394.369,341.831 387.119,343.193 C 388.185,339.735 391.325,335.934 394.397,333.169 C 395.137,332.528 397.221,329.288 397.163,328.132 C 396.642,328.362 394.134,328.274 391.859,330.083 C 385.456,334.885 373.124,337.685 364.119,339.729 C 360.028,340.658 357.306,341.295 355.496,341.926 C 352.281,334.531 343.225,331.765 338.624,330.397 L 331.965,328.397 L 335.443,333.192 C 337.076,335.437 337.702,337.514 337.702,339.415 C 337.702,341.577 336.879,343.501 335.818,345.199 C 328.38,337.518 316.02,329.368 309.453,328.054 L 307.573,327.678 L 307.118,329.54 C 305.199,337.389 302.347,342.59 298.637,345.09 C 293.627,328.072 287.061,323.699 282.647,320.784 L 279.352,318.576 L 278.497,321.049 C 275.037,331.429 267.686,340.117 263.823,343.541 C 263.757,342.062 263.717,340.352 263.717,338.498 C 263.717,330.29 264.475,319.645 267.003,317.557 C 267.142,317.432 270.315,314.382 272.461,313.68 C 271.685,313.494 267.791,313.453 265.098,314.118 C 255.791,317.212 239.482,329.543 233.399,336.714 C 228.085,325.92 222.384,322.919 215.108,320.147 C 214.578,319.949 209.444,318.731 209.131,318.7 C 209.428,318.934 212.187,321.433 212.965,323.414 C 213.356,324.122 213.611,324.973 213.611,326.317 C 213.611,329.205 212.802,333.332 212.379,335.486 C 212.364,335.564 212.354,335.621 212.339,335.696 C 199.356,320.259 184.289,316.016 177.729,316.016 L 175.106,316.016 L 175.8,318.545 C 176.747,321.995 177.124,324.866 177.124,327.263 C 177.124,333.831 174.304,336.813 172.594,338.38 C 165.116,332.878 147.666,324.019 142.91,322.75 L 140.097,322 L 140.407,324.896 C 140.416,324.973 141.089,331.341 141.316,336.648 C 129.999,332.156 116.015,333.269 109.045,335.804 L 105.791,336.987 L 108.441,339.215 C 108.505,339.269 113.425,343.426 116.927,347.183 C 105.279,347.956 89.016,351.615 80.986,354.827 L 75.322,357.093 L 81.227,358.621 C 82.991,359.077 86.288,361.337 89.426,363.774 C 79.558,362.949 66.903,363.393 64.173,363.696 L 61.544,363.989 C 61.544,363.989 63.617,369.079 64.648,371.605 C 54.738,369.774 43.502,374.635 38.909,376.626 L 34.091,378.675 L 37.366,380.733 C 37.366,380.733 37.902,381.063 38.026,381.14 C 31.757,382.232 25.603,385.376 22.164,387.696 C 20.612,388.742 15.912,392.459 15.912,392.459 C 16.74,392.492 20.03,392.045 21.219,392.93 C 21.711,393.347 22.223,393.752 22.59,394.243 C 18.172,394.928 12.494,397.301 4.096,401.934 C 0.729,403.786 0,406.083 0,407.721 C 0,407.758 0.001,407.795 0.001,407.832 C 0.095,412.449 5.981,417.71 17.499,423.47 C 18.515,423.978 19.77,424.796 19.985,425.811 C 20.01,425.932 20.022,426.057 20.022,426.186 C 20.022,427.754 18.243,429.903 17.036,431.362 L 16.052,432.573 L 16,432.673 C 14.462,435.309 13.69,437.731 13.69,439.909 C 13.69,440.978 13.877,441.988 14.249,442.937 C 15.977,447.338 20.98,448.858 23.669,449.673 C 23.669,449.673 24.317,449.876 24.389,449.898 C 56.906,465.414 145.171,464.652 183.297,463.517 C 182.206,467.6 183.103,470.917 183.866,473.728 L 184.796,477.556 L 186.394,477.68 C 190.675,477.68 198.537,473.525 206.222,469.269 C 206.999,468.839 207.824,468.382 208.516,468.009 C 213.457,477.669 219.654,479.39 223.851,480.48 L 227.162,481.388 L 227.904,479.792 C 229.42,476.21 229.933,473.069 229.933,470.391 C 229.933,469.367 229.849,468.423 229.726,467.534 C 238.894,473.145 252.847,473.347 254.728,473.347 L 256.58,473.347 L 256.723,471.499 C 256.879,469.463 256.795,467.43 256.525,465.459 C 337.248,469.063 351.675,461.897 355.459,456.16 C 357.902,452.456 356.063,448.66 354.964,446.391 L 354.554,445.525 C 354.204,444.751 354.371,444.518 354.434,444.43 C 355.42,443.052 361.195,442.018 371.54,443.003 C 396.999,445.764 446.517,447.025 471.861,440.957 C 474.921,440.225 477.086,438.812 478.296,436.761 C 479.126,435.353 479.426,433.822 479.426,432.274 C 479.426,430.018 478.791,427.727 478.237,425.725 L 477.686,423.594 C 477.657,423.461 477.633,423.305 477.633,423.129 C 477.633,422.725 477.758,422.207 478.237,421.592 C 479.748,419.653 484.322,417.588 491.133,417.344 C 499.999,417.028 513.566,415.08 516.171,413.343 C 516.871,412.876 517.29,412.141 517.351,411.275 C 517.355,411.22 517.357,411.165 517.357,411.109 C 517.355,408.199 512.373,402.909 509.197,399.829 z "
   id="path9" />
				<path
   d="M 241.394,449.681 C 242.062,451.681 243.92,452.905 245.062,453.234 C 249.382,454.758 252.754,461.984 252.794,469.29 C 244.907,469.007 232.448,466.944 227.668,460.491 C 225.108,457.134 222.894,457.014 222.204,456.955 L 222.516,457.854 C 225.116,465.016 225.945,467.353 225.945,470.389 C 225.945,472.196 225.624,474.264 224.823,476.601 C 220.665,475.52 215.498,474.157 211.221,464.536 L 210.484,462.876 L 208.76,463.45 C 208.07,463.68 206.889,464.329 204.283,465.771 C 200.192,468.037 192.213,472.45 187.912,473.46 C 187.834,473.135 187.724,472.679 187.724,472.679 C 187.3,471.118 186.843,469.438 186.843,467.533 C 186.843,463.401 188.993,458.216 198.294,450.922 C 201.129,448.228 201.22,446.734 201.459,445.667 C 200.499,445.562 197.032,446.868 195.825,447.774 C 190.171,452.209 186.843,456.069 184.963,459.465 L 184.634,459.475 C 147.572,460.625 57.917,461.637 25.928,446.212 L 25.796,446.149 L 24.829,445.847 C 22.788,445.228 18.99,444.075 17.971,441.477 C 17.783,440.996 17.689,440.466 17.689,439.889 C 17.689,438.467 18.273,436.751 19.412,434.777 C 19.574,434.578 20.115,433.913 20.115,433.913 C 21.796,431.884 24.023,429.192 24.023,426.202 C 24.023,425.802 23.984,425.397 23.898,424.987 C 23.461,422.919 21.91,421.204 19.287,419.892 C 8.071,414.284 4.042,409.847 4,407.752 C 4,407.742 4,407.733 4,407.725 C 4,406.946 4.683,406.174 6.027,405.432 C 15.775,400.054 21.64,397.835 25.639,398.012 L 28.543,398.14 L 27.624,395.382 C 27.025,393.583 26.087,392.068 24.838,390.76 C 28.791,388.284 37.316,383.862 44.418,384.876 C 44.553,384.895 51.257,385.464 51.589,385.497 C 51.589,385.497 47.274,381.878 45.771,381.206 C 45.771,381.206 44.254,380.272 42.743,379.343 C 48.566,376.931 59.308,373.14 67.28,376.523 L 71.742,378.416 C 71.742,378.416 68.361,370.118 67.292,367.495 C 73.603,367.201 88.116,367.024 95.642,368.637 L 103.026,370.22 L 97.394,365.19 C 96.626,364.505 91.447,359.932 86.855,357.022 C 96.43,354.021 111.699,351.015 121.062,351.015 L 124.878,351.015 L 122.706,347.876 C 120.704,344.985 116.615,341.112 113.839,338.619 C 121.365,336.96 133.476,336.821 142.479,341.459 L 145.395,342.962 L 145.395,339.682 C 145.395,335.993 144.992,330.911 144.694,327.65 C 151.711,330.583 166.478,338.411 171.448,342.551 L 172.808,343.685 L 174.288,342.266 L 174.891,341.7 C 176.8,339.985 181.119,336.106 181.119,327.273 C 181.119,325.208 180.884,322.872 180.325,320.229 C 188.316,321.366 201.63,327.516 212.113,341.862 L 215.586,339.94 L 215.664,340.228 C 215.662,340.204 215.66,340.176 215.66,340.145 C 215.66,339.538 216.015,337.725 216.305,336.255 C 217.016,332.631 217.602,329.271 217.602,326.492 C 217.602,326.132 217.568,325.804 217.547,325.465 C 222.308,327.661 226.861,331.203 231.221,341.464 L 233.118,345.927 L 234.919,341.424 C 236.371,337.795 251.068,325.643 261.459,320.118 C 260.083,324.981 259.712,331.662 259.712,337.203 C 259.712,342.762 260.062,347.129 260.073,347.236 L 260.271,349.015 L 262.061,349.015 C 265.39,349.015 276.285,337.591 281.393,324.757 C 285.471,327.524 291.119,332.244 295.461,348.529 L 296.041,350.706 L 298.206,349.843 C 303.733,347.641 307.829,341.788 310.437,332.524 C 317.104,334.804 328.691,342.921 334.551,349.66 L 336.146,351.495 L 337.639,349.576 C 340.339,346.103 341.69,342.678 341.69,339.325 C 341.69,337.991 341.452,336.671 341.024,335.361 C 345.631,336.972 351.195,339.716 352.444,345.131 L 353.207,348.435 C 353.207,348.435 355.628,346.257 355.75,346.148 C 356.585,345.542 361.059,344.526 365.006,343.629 C 371.094,342.247 378.625,340.518 385.111,338.025 C 383.729,340.335 382.709,342.889 382.709,345.474 C 382.709,345.702 382.717,345.928 382.732,346.155 L 382.972,349.58 L 385.832,347.683 C 387.646,346.48 396.405,346.081 411.474,347.715 C 410.35,348.691 409.646,349.556 408.963,350.403 C 408.392,351.111 407.853,351.78 407.025,352.556 L 404.521,354.905 L 428.901,362.498 L 429.622,362.138 C 433.605,360.147 444.354,358.923 454.078,363.712 C 451.82,365.733 451.322,367.097 450.682,369.335 L 449.364,373.689 L 452.06,373.683 L 457.189,373.578 C 465.822,373.325 477.331,372.988 486.959,377.436 C 484.105,379.109 474.712,384.615 474.712,384.615 L 481.276,385.013 C 488.544,385.44 501.217,387.452 508.815,395.773 C 506.706,396.377 504.796,397.103 504.675,397.15 L 501.609,398.33 L 504.064,400.512 C 507.434,403.508 511.783,408.223 513.026,410.378 C 509.727,411.422 499.377,413.052 490.989,413.352 C 483.646,413.615 477.699,415.777 475.08,419.138 C 474.122,420.367 473.632,421.728 473.632,423.13 C 473.632,423.563 473.678,423.999 473.772,424.437 L 474.38,426.798 C 474.859,428.527 475.413,430.53 475.413,432.269 C 475.413,433.193 475.257,434.042 474.849,434.734 C 474.203,435.831 472.919,436.595 470.928,437.073 C 447.126,442.771 398.149,441.871 371.944,439.029 C 360.406,437.929 353.429,438.966 351.18,442.106 C 350.464,443.105 349.835,444.795 350.904,447.171 L 351.363,448.14 C 352.503,450.493 353.224,452.286 352.119,453.962 C 348.651,459.22 329.058,464.756 255.668,461.421 C 253.987,455.624 250.58,450.941 246.395,449.464 C 244.476,448.991 242.144,449.348 241.394,449.681 z "
   style="fill:#65b722"
   id="path11" />
				<path
   d="M 65.04,428.777 C 60.894,428.347 48.728,427.513 42.561,429.18 C 46.894,426.347 52.561,421.847 55.394,421.513 C 55.394,421.513 64.894,425.521 65.394,427.18 C 65.895,428.84 65.04,428.777 65.04,428.777 z "
   style="fill:#336633"
   id="path13" />
				<path
   d="M 83.564,392.306 C 83.678,394.13 84.502,395.938 85.374,397.853 C 86.343,399.982 87.04,401.679 87.089,403.115 C 86.957,403.037 86.633,402.842 86.633,402.842 C 81.214,399.385 73.027,394.162 55.552,401.331 L 51.831,402.857 L 55.293,404.903 C 59.601,407.448 63.399,410.416 66.033,413.227 C 63.634,413.54 61.488,413.727 59.542,413.889 C 54.087,414.342 49.778,414.701 45.404,417.799 L 41.176,420.793 L 47.528,421.563 C 51.61,422.036 60.104,423.02 65.04,428.778 L 69.478,429.098 C 65.546,424.512 58.671,419.569 54.071,418.559 C 55.791,418.248 57.651,418.06 59.874,417.875 C 62.79,417.632 66.096,417.357 70.154,416.651 L 73.226,416.117 L 71.458,413.548 C 69.237,410.317 65.409,406.84 60.755,403.677 C 73.689,399.372 79.64,403.124 84.482,406.213 L 89.087,408.974 L 90.017,407.224 C 90.805,405.935 91.109,404.617 91.109,403.31 C 91.109,400.795 89.984,398.324 89.014,396.195 C 88.827,395.787 88.646,395.384 88.476,394.993 C 99.259,398.125 101.586,403.187 103.636,407.706 L 104.266,409.075 L 107.878,407.358 L 107.278,406.053 C 104.905,400.821 101.655,393.655 85.987,390.227 L 83.399,389.662 L 83.564,392.306 z "
   id="path15" />
				<path
   d="M 400.777,415.578 C 400.039,415.724 388.697,415.152 384.369,412.994 C 387.799,410.933 389.092,409.64 394.982,408.539 L 400.777,415.435"
   style="fill:#336633"
   id="path17" />
				<path
   d="M 458.406,403.743 C 453.312,406.122 452.666,408.853 451.848,412.311 C 451.567,413.501 451.276,414.732 450.785,415.975 L 447.064,414.504 C 447.45,413.53 447.695,412.49 447.956,411.39 C 448.506,409.066 449.169,406.376 451.399,403.899 C 446.763,404.284 440.17,406.178 433.293,413.773 L 431.167,416.121 L 429.961,413.192 C 429.647,412.426 429.135,411.57 428.594,410.663 C 427.374,408.618 425.799,405.977 425.799,402.825 C 425.799,402.112 425.914,401.366 426.098,400.602 C 422.02,403.112 417.208,407.154 414.826,411.622 L 413.743,413.678 L 411.043,411.674 C 407.873,409.307 404.284,406.689 397.084,406.258 C 398.15,408.162 402.091,413.675 404.729,415.848 L 400.041,415.725 C 395.889,412.305 392.772,407.928 392.102,404.574 L 391.634,402.237 L 394.016,402.181 C 403.856,401.952 408.907,405.141 412.534,407.803 C 417.348,400.631 426.348,395.236 430.328,394.241 L 436.658,392.659 L 432.303,397.516 C 430.474,399.556 429.804,401.281 429.804,402.87 C 429.804,404.878 430.874,406.673 432.033,408.613 C 432.131,408.778 432.225,408.948 432.323,409.115 C 442.56,399.182 452.355,399.672 456.187,399.899 L 457.344,399.942 C 459.058,400.284 462.397,400.764 463.564,401.346 C 462.395,401.847 461.085,402.805 458.406,403.743 z "
   id="path19" />
			</g>
		</g>
		<g
   id="Layer_2">
			<g
   id="g22">
				<path
   d="M 457.655,275.497 C 457.609,275.474 457.562,275.45 457.514,275.431 C 450.204,272.251 413.281,258.009 395.911,285.897 C 392.255,272.538 380.443,237.638 353.906,223.5 C 353.251,223.15 352.456,223.193 351.841,223.611 C 351.287,223.988 347.332,226.76 342.488,232.056 C 342.328,231.96 342.159,231.878 341.969,231.829 C 331.514,229.104 304.862,224.584 283.243,241.389 C 266.441,254.45 257.125,277.027 255.478,308.589 C 247.595,309.652 236.592,306.321 225.929,303.093 C 209.901,298.241 193.326,293.224 188.607,305.022 C 188.576,305.103 188.537,305.231 188.515,305.315 L 188.384,305.829 C 185.746,315.826 188.044,325.521 195.066,334.594 C 187.924,336.623 182.488,341.041 181.058,342.852 C 179.447,344.201 178.946,345.443 178.946,346.434 C 178.946,346.827 179.02,347.179 179.128,347.485 C 180.296,350.817 187.161,351.516 192.715,351.516 C 200.356,351.92 215.874,357.164 229.566,361.789 C 240.19,365.379 248.721,368.262 252.876,368.707 C 254.798,372.162 257.526,374.903 259.051,376.429 C 258.489,379.195 258.426,382.277 259.92,384.448 C 261.029,386.06 263.37,387.717 268.221,386.451 C 272.369,385.369 274.331,386.516 275.765,387.356 C 275.765,387.356 276.559,387.797 276.568,387.802 C 278.621,389.007 282.862,388.08 285.004,387.487 C 286.89,388.768 290.294,389.874 293.312,389.758 C 296.695,389.627 299.338,387.994 300.756,385.16 C 302.278,382.115 301.695,379.468 300.541,377.392 C 307.633,378.113 318.381,378.199 321.584,378.011 C 321.735,378.002 321.881,377.974 322.022,377.933 C 326.856,379.904 333.487,381.892 342.545,383.562 C 340.075,387.958 339.586,391.671 341.123,394.641 C 343.42,399.081 349.389,399.953 351.187,399.752 C 351.421,399.726 351.65,399.659 351.861,399.554 C 354.206,398.381 358.022,400.243 360.302,401.356 L 362.014,402.137 L 362.733,402.498 C 365.023,403.789 366.932,403.845 371.593,400.667 C 375.13,398.255 376.072,398.67 377.784,399.425 C 379.554,400.204 381.977,401.273 386.53,399.933 C 388.879,399.242 390.637,397.689 391.617,395.44 C 392.396,393.65 392.63,391.578 392.556,389.499 C 397.533,389.103 401.872,390.039 404.48,392.088 C 409.141,395.75 412.898,393.055 415.642,391.088 C 415.642,391.088 416.108,390.766 416.561,390.454 C 420.836,391.732 425.288,389.965 427.11,389.055 C 429.354,387.981 430.007,386.227 430.155,384.946 C 430.64,380.723 426.232,375.731 424.324,373.792 C 425.774,371.556 426.933,368.953 427.426,366.182 C 428.296,361.282 427.397,354.536 419.514,348.222 C 436.089,355.502 446.501,348.252 450.053,344.983 C 457.187,347.06 464.078,349.683 468.36,355.459 C 468.904,356.191 469.877,356.464 470.722,356.119 C 478.09,353.111 488.884,338.641 489.728,321.908 C 490.386,308.854 485.355,290.21 457.655,275.497 z "
   id="path24" />
				<path
   d="M 353.07,227.666 C 380.569,243.187 391.164,282.834 393.019,290.722 C 393.029,290.765 393.048,290.802 393.06,290.842 C 391.957,293.13 390.739,296.15 389.829,299.513 C 377.996,299.913 354.996,313.591 336.058,325.627 L 334.715,326.468 C 328.649,310.958 326.286,297.379 326.286,285.657 C 326.287,249.946 348.042,231.463 353.07,227.666 z "
   style="fill:#ffffff"
   id="path26" />
				<path
   d="M 192.822,347.517 C 188.85,347.515 184.724,346.946 183.254,346.259 C 183.374,346.134 183.479,346.017 183.716,345.825 C 183.866,345.706 184.056,345.477 184.165,345.319 C 184.833,344.36 190.483,339.532 197.967,338.003 C 203.216,343.696 210.384,349.118 219.416,354.184 C 208.98,350.782 198.892,347.837 192.822,347.517 z "
   style="fill:#336633"
   id="path28" />
				<path
   d="M 230.848,357.999 C 228.641,357.253 226.386,356.493 224.123,355.737 C 229.482,357.147 239.552,359.538 250.73,361.549 C 250.759,362.504 250.89,363.438 251.114,364.343 C 246.694,363.352 238.956,360.738 230.848,357.999 z "
   style="fill:#336633"
   id="path30" />
				<path
   d="M 221.777,350.925 C 207.317,342.884 191.339,330.263 191.339,313.745 C 191.339,311.516 191.629,309.217 192.254,306.849 C 192.254,306.849 192.311,306.626 192.358,306.439 C 195.769,298.146 209.856,302.406 224.772,306.922 C 235.544,310.183 246.642,313.53 255.313,312.619 C 255.248,314.723 255.212,316.864 255.212,319.046 C 255.212,319.271 255.214,319.496 255.214,319.722 C 254.235,321.523 252.757,325.654 252.757,329.439 C 252.757,330.225 252.82,330.996 252.966,331.725 C 253.404,333.917 254.539,335.576 256.252,336.517 C 261.973,339.663 292.617,354.21 334.174,331.52 C 334.218,331.496 338.202,329.003 338.202,329.003 C 347.843,322.876 376.164,304.882 388.931,303.584 C 388.627,305.389 388.444,307.239 388.444,309.085 C 388.444,310.257 388.561,311.419 388.73,312.572 C 378.164,315.907 367.925,326.23 360.341,333.885 C 356.666,337.596 353.492,340.8 351.427,342.054 C 351.344,342.105 351.264,342.161 351.189,342.223 C 325.983,363.116 292.877,361.603 281.999,361.106 L 279.774,361.014 C 257.284,360.273 225.354,352.14 221.777,350.925 z "
   style="fill:#fdcc12"
   id="path32" />
				<path
   d="M 423.488,365.48 C 422.353,371.877 416.816,376.776 415.155,377.038 C 414.063,377.211 413.319,378.235 413.491,379.326 C 413.663,380.417 414.687,381.162 415.778,380.989 C 417.48,380.721 419.76,379.221 421.872,376.948 C 423.569,378.749 426.415,382.46 426.182,384.488 C 426.149,384.782 426.054,385.126 425.354,385.46 C 424.168,386.052 420.16,387.827 417.03,386.437 C 416.394,386.155 415.722,386.179 415.149,386.574 L 413.313,387.837 C 410.305,389.994 409.064,390.602 406.953,388.942 C 402.283,385.273 395.658,385.218 392.093,385.519 C 391.478,382.298 390.44,379.532 389.984,378.408 C 393.935,372.781 395.468,366.584 395.468,363.265 C 395.468,360.296 395.151,357.531 394.53,354.968 C 399.947,353.937 408.269,350.534 410.548,348.509 C 410.856,348.236 411.274,348.019 411.737,347.831 C 411.819,347.895 411.902,347.96 411.996,348.012 C 420.684,352.849 424.658,358.89 423.488,365.48 z "
   style="fill:#98cf18"
   id="path34" />
				<g
   id="g36">
					<path
   d="M 277.392,303.735 C 280.567,312.706 294.323,302.915 299.55,299.305 C 308.635,310.032 317.946,293.847 322.294,286.071 C 322.184,262.167 331.435,245.454 339.631,235.368 C 328.969,232.8 305.067,229.493 285.699,244.547 C 269.666,257.01 260.848,278.958 259.423,309.864 C 259.489,310.188 259.467,310.509 259.382,310.807 C 259.325,312.182 259.287,313.579 259.26,314.989 C 266.636,319.249 275.411,307.081 277.392,303.735 z "
   style="fill:#fdcc12"
   id="path38" />
					<path
   d="M 259.129,320.78 C 263.348,324.484 275.571,329.477 312.225,325.606 C 314.539,325.527 323.179,325.639 314.532,328.702 C 306.435,331.569 270.565,334.089 257.546,332.483 C 257.764,332.75 257.991,332.907 258.182,333.011 C 263.536,335.957 292.061,349.451 331.236,328.545 C 324.859,312.443 322.352,298.316 322.296,286.07 C 317.948,293.846 308.637,310.031 299.552,299.304 C 294.324,302.913 280.569,312.704 277.394,303.734 C 275.414,307.08 266.638,319.248 259.262,314.988 C 259.227,316.718 259.209,318.468 259.219,320.252 C 259.218,320.422 259.182,320.603 259.129,320.78 z "
   style="fill:#f79910"
   id="path40" />
				</g>
				<g
   id="g42">
					<path
   d="M 264.932,371.476 C 264.9,371.806 264.796,372.133 264.597,372.424 C 263.775,373.624 261.71,380.038 263.226,382.193 C 263.926,383.189 265.781,382.953 267.212,382.58 C 272.961,381.08 276.1,382.916 277.785,383.902 L 278.361,384.226 C 278.378,384.236 278.463,384.297 278.533,384.348 C 279.149,384.527 281.748,384.353 284.858,383.359 C 285.667,383.101 286.67,383.558 287.181,384.236 L 287.02,384.023 C 287.676,384.63 291.227,386.181 294.086,385.661 C 295.526,385.399 296.537,384.65 297.177,383.371 C 298.449,380.826 296.953,378.732 295.14,376.945 C 295.032,377.022 294.94,377.103 294.826,377.179 C 293.907,377.791 292.665,377.542 292.053,376.624 C 291.676,376.058 291.627,375.369 291.859,374.78 C 282.922,370.531 269.986,370.944 264.932,371.476 z "
   style="fill:#98cf18"
   id="path44" />
					<path
   d="M 368.065,390.262 C 366.961,390.317 366.023,389.466 365.968,388.363 C 365.914,387.26 366.764,386.322 367.867,386.267 C 387.363,385.304 391.466,366.857 391.466,363.265 C 391.466,355.341 388.976,349.115 384.065,344.759 C 376.289,337.86 364.339,337.524 362.464,337.749 C 362.354,337.762 362.246,337.759 362.139,337.755 C 361.528,338.37 360.945,338.954 360.373,339.52 C 357.679,348.62 341.754,366.667 338.542,370.093 C 335.987,372.82 336.602,375.879 337.73,378.505 C 339.939,378.999 342.313,379.478 344.916,379.931 L 344.919,379.931 C 345.813,378.725 346.822,377.479 347.972,376.186 C 348.706,375.361 349.97,375.287 350.796,376.02 C 351.621,376.753 351.695,378.017 350.962,378.843 C 345.466,385.026 343.232,389.978 344.668,392.788 C 345.888,395.173 349.656,395.796 350.627,395.781 C 354.621,394.18 359.242,396.387 362.057,397.76 L 363.419,398.391 L 364.698,399.013 C 365.403,399.41 365.913,399.698 369.34,397.362 C 374.317,393.968 376.743,394.593 379.399,395.763 C 380.93,396.438 382.253,397.022 385.403,396.094 C 386.63,395.735 387.439,395.018 387.951,393.842 C 389.332,390.67 388.113,385.197 387.059,381.957 C 382.786,386.371 376.64,389.839 368.065,390.262 z "
   style="fill:#98cf18"
   id="path46" />
					<path
   d="M 292.607,373.851 C 296.316,371.378 295.617,368.335 294.584,365.43 L 294.537,365.289 C 289.13,365.434 284.711,365.235 281.817,365.102 C 281.817,365.102 279.658,365.012 279.65,365.012 C 271.969,364.759 263.197,363.655 254.786,362.252 C 255.255,366.121 258.127,369.678 260.377,372.062 C 260.772,371.096 261.137,370.385 261.34,370.101 C 261.977,369.209 263.203,369.011 264.103,369.639 C 264.712,370.067 264.999,370.779 264.932,371.475 C 269.987,370.944 282.922,370.531 291.859,374.78 C 292.003,374.413 292.255,374.085 292.607,373.851 z "
   style="fill:#336633"
   id="path48" />
					<path
   d="M 338.543,370.093 C 341.755,366.667 357.68,348.619 360.374,339.52 C 357.727,342.148 355.503,344.214 353.661,345.371 C 335.731,360.189 314.197,364.215 298.701,365.113 C 299.318,367.046 299.974,370.125 298.524,373.119 C 302.41,373.715 309.129,374.014 314.478,374.088 C 313.822,373.656 313.241,373.237 312.733,372.84 C 311.863,372.158 311.711,370.901 312.392,370.031 C 313.073,369.161 314.33,369.01 315.2,369.691 C 318.435,372.226 324.925,375.646 337.73,378.505 C 336.603,375.879 335.988,372.819 338.543,370.093 z "
   style="fill:#336633"
   id="path50" />
				</g>
				<g
   id="g52">
					<path
   d="M 455.84,279.065 C 446.118,274.848 413.641,263.294 398.696,289.018 C 398.641,289.112 398.572,289.209 398.504,289.293 C 397.213,290.861 390.66,303.639 392.917,313.57 C 392.921,313.586 392.918,313.601 392.921,313.617 C 392.951,313.763 392.962,313.908 392.959,314.053 C 392.958,314.1 392.954,314.147 392.95,314.194 C 392.938,314.32 392.915,314.442 392.881,314.563 C 392.87,314.599 392.864,314.635 392.852,314.671 C 392.799,314.82 392.73,314.963 392.645,315.096 C 392.625,315.125 392.602,315.151 392.582,315.18 C 392.504,315.287 392.417,315.385 392.319,315.476 C 392.3,315.493 392.289,315.516 392.269,315.532 C 391.422,316.259 385.631,325.155 391.631,334.155 C 392.243,335.073 391.995,336.315 391.076,336.928 C 390.157,337.54 388.915,337.291 388.303,336.373 C 386.079,333.038 385.139,329.685 384.962,326.582 C 382.572,327.971 379.227,330.493 376.624,336.016 C 380.073,337.224 383.62,339.029 386.674,341.724 C 389.624,344.328 391.836,347.471 393.305,351.121 C 397.908,350.37 406.254,346.971 407.888,345.518 C 410.887,342.852 416.495,342.727 420.185,344.146 C 420.227,344.162 420.269,344.179 420.31,344.199 C 432.719,349.967 440.976,346.766 445.35,343.662 C 437.451,341.488 430.071,339.315 426.823,333.407 C 425.074,333.902 423.526,334.06 422.907,334.008 C 420.951,333.837 421.158,331.524 421.158,331.524 C 425.431,331.286 432.631,325.526 433.661,324.167 C 434.794,327.909 432.983,330.331 430.522,331.839 C 433.193,336.175 439.648,337.948 447.049,339.982 C 455.256,342.238 464.451,344.834 470.442,351.771 C 475.997,348.408 484.983,336.613 485.734,321.705 C 485.765,321.082 485.782,320.445 485.782,319.797 C 485.781,308.046 480.276,292.066 455.84,279.065 z "
   style="fill:#98cf18"
   id="path54" />
					<path
   d="M 384.962,326.583 C 384.941,326.21 384.925,325.84 384.925,325.476 C 384.925,322.568 385.572,319.933 386.423,317.786 C 379.178,321.223 371.992,327.904 366.055,333.818 C 368.849,334.033 372.672,334.632 376.624,336.017 C 379.227,330.494 382.572,327.972 384.962,326.583 z "
   style="fill:#336633"
   id="path56" />
				</g>
				<path
   d="M 370.005,373.315 C 381.704,376.835 386.194,371.028 387.901,365.536 C 388.569,363.384 388.446,361.421 387.533,359.7 C 385.827,356.487 381.935,355.309 380.274,354.807 L 379.936,354.703 C 370.796,351.76 367.928,356.426 367.12,358.568 C 365.839,361.959 367.916,366.107 371.654,367.627 C 373.942,368.557 377.058,368.721 378.865,366.998 C 379.629,366.268 380.753,364.598 379.697,361.607 C 379.33,360.566 378.187,360.019 377.145,360.388 C 376.324,360.677 375.81,361.449 375.81,362.273 C 375.81,362.494 375.847,362.718 375.925,362.939 C 376.091,363.41 376.129,363.712 376.129,363.892 C 376.129,364.038 376.104,364.099 376.102,364.103 C 375.899,364.332 374.582,364.498 373.159,363.919 C 371.442,363.222 370.347,361.345 370.862,359.98 C 371.755,357.615 374.395,357.121 378.711,358.509 C 378.712,358.511 379.116,358.634 379.116,358.634 C 380.301,358.993 383.075,359.831 384,361.575 C 384.4,362.327 384.427,363.235 384.081,364.346 C 381.808,371.662 375.98,370.934 371.157,369.483 L 370.707,369.35 C 369.592,369.03 366.359,367.561 364.812,364.627 C 363.796,362.699 363.709,360.438 364.554,357.904 C 365.515,355.023 367.097,353.105 369.392,352.041 C 374.151,349.834 380.232,352.152 380.292,352.176 C 379.267,351.766 378.768,350.602 379.179,349.576 C 379.589,348.551 380.753,348.053 381.779,348.463 C 381.468,348.338 374.094,345.451 367.71,348.412 C 364.408,349.943 362.069,352.711 360.76,356.639 C 359.557,360.248 359.73,363.563 361.275,366.493 C 363.392,370.509 367.509,372.597 369.608,373.196 L 370.005,373.315 z "
   style="fill:#336633"
   id="path58" />
				<path
   d="M 420.943,365.745 C 420.236,364.895 418.975,364.782 418.127,365.489 C 415.299,367.844 411.241,370.358 407.972,368.942 C 405.403,367.829 404.047,364.604 403.939,362.774 C 403.882,361.795 404.614,359.178 406.566,357.561 C 407.938,356.422 409.539,356.102 411.458,356.582 C 413.627,357.123 414.829,358.355 414.756,359.961 C 414.703,361.131 413.872,362.434 412.387,362.664 C 411.491,362.805 411.084,362.648 411.039,362.576 C 410.925,362.4 410.983,361.892 411.105,361.707 L 410.686,361.998 C 411.521,361.418 411.987,360.195 411.505,359.301 C 411.023,358.405 410.144,357.906 409.199,358.283 C 407.343,359.027 406.627,361.654 407.145,363.549 C 407.65,365.393 409.453,367.168 412.999,366.617 C 416.184,366.123 418.603,363.4 418.751,360.142 C 418.873,357.468 417.29,353.915 412.428,352.701 C 408.447,351.705 405.655,353.119 404.012,354.48 C 401.184,356.826 399.806,360.625 399.947,363.007 C 400.105,365.712 401.994,370.71 406.383,372.611 C 409.219,373.84 414.001,374.132 420.689,368.56 C 421.536,367.854 421.65,366.593 420.943,365.745 z "
   style="fill:#336633"
   id="path60" />
				<path
   d="M 363.157,248.524 C 363.157,248.524 370.324,287.274 370.324,289.274 C 367.907,289.524 377.979,287.7 380.443,287.862 L 382.657,293.274 C 365.907,296.024 352.324,305.942 349.657,307.942 L 348.324,301.942 L 354.865,295.864 L 350.657,270.774 C 350.657,270.774 346.374,278.247 343.707,279.579 L 341.293,262.893 C 344.626,261.561 347.157,257.024 346.99,253.274 C 349.407,251.774 358.157,248.774 363.157,248.524 z "
   id="path62" />
				<path
   d="M 278.332,325.532 C 279.946,325.159 280.953,323.548 280.58,321.934 C 276.832,305.692 285.797,269.668 287.109,266.389 C 287.724,264.85 286.976,263.104 285.438,262.489 C 283.9,261.874 282.154,262.622 281.539,264.161 C 280.036,267.917 270.546,305.134 274.734,323.284 C 275.106,324.897 276.718,325.905 278.332,325.532 z "
   id="path64" />
				<path
   d="M 302.721,326.079 C 304.271,325.493 305.05,323.761 304.462,322.212 C 298.3,305.964 304.629,276.792 306.709,267.206 L 307.283,264.435 C 307.619,262.814 306.555,261.345 304.934,261.007 C 303.313,260.671 301.704,261.827 301.365,263.448 L 300.845,265.934 C 298.672,275.95 292.059,306.428 298.852,324.338 C 299.439,325.888 301.172,326.667 302.721,326.079 z "
   id="path66" />
				<path
   d="M 423.29,287.175 C 414.835,287.175 407.957,294.054 407.957,302.509 C 407.957,310.964 414.835,317.841 423.29,317.841 C 431.745,317.841 438.623,310.964 438.623,302.509 C 438.623,294.054 431.745,287.175 423.29,287.175 z "
   id="path68" />
				<path
   d="M 420.454,312.938 C 416.934,312.938 414.07,310.075 414.07,306.553 C 414.07,303.033 416.934,300.17 420.454,300.17 C 423.974,300.17 426.838,303.033 426.838,306.553 C 426.838,310.075 423.974,312.938 420.454,312.938 z "
   style="fill:#3398c3"
   id="path70" />
				<path
   d="M 429.17,312.179 C 430.221,310.556 430.838,308.626 430.838,306.554 C 430.838,300.829 426.18,296.171 420.454,296.171 C 417.072,296.171 414.071,297.804 412.175,300.314 C 413.2,295.113 417.792,291.175 423.29,291.175 C 429.539,291.175 434.623,296.259 434.623,302.509 C 434.623,306.603 432.433,310.187 429.17,312.179 z "
   style="fill:#ffffff"
   id="path72" />
				<circle
   cx="419.52301"
   cy="308.98901"
   r="4.046"
   id="circle74" /> 
				<circle
   cx="418.80399"
   cy="307.591"
   r="1.752"
   style="fill:#ffffff"
   id="circle76" /> 
			</g>
		</g>
		<g
   id="Layer_1">
			<g
   id="g79">
				<path
   d="M 275.043,156.706 C 270.189,152.246 264.99,150.729 262.582,150.028 C 262.582,150.028 262.318,149.946 262.057,149.864 C 260.618,147.125 258.377,144.54 256.262,142.583 C 271.684,134.054 280.36,125.878 283.207,117.224 C 283.949,114.967 284.269,112.763 284.269,110.602 C 284.269,103.438 280.738,96.754 277.294,90.241 C 274.048,84.096 270.69,77.742 270.384,71.107 C 269.773,65.13 268.2,59.874 265.946,55.25 C 283.698,45.284 289.153,34.913 290.571,27.897 C 292.167,20.011 289.339,14.313 288.114,12.782 C 288.087,12.748 288.059,12.716 288.03,12.683 C 274.704,-1.922 252.901,-1.709 226.637,13.283 L 225.787,13.762 C 225.582,13.875 225.374,14.001 225.168,14.117 C 220.516,9.347 209.251,3.499 196.569,1.154 C 184.662,-1.049 166.871,-1.178 149.744,10.722 C 146.865,12.795 122.088,36.31 123.338,55.807 C 123.803,63.053 127.721,68.807 134.966,72.928 C 134.5,77.049 134.83,81.61 136.695,86.274 C 136.848,86.658 137.107,86.967 137.425,87.184 C 136.07,87.589 134.793,88.218 133.601,89.074 C 129.097,92.311 127.232,97.97 127.062,99.666 C 127.031,100.046 127.013,100.435 127.013,100.831 C 127.013,107.664 132.07,116.641 154.144,123.21 C 154.617,131.388 157.737,138.116 163.499,143.189 C 168.144,147.278 174.065,149.942 180.358,151.638 C 179.778,153.549 179.338,155.285 179.069,156.426 C 172.755,159.911 149.528,173.838 146.579,191.536 C 146.578,191.537 146.559,191.644 146.559,191.644 C 146.043,194.624 145.144,200.945 145.144,208.7 C 145.144,228.316 150.911,257.107 183.194,264.289 C 181.438,270.401 178.387,286.237 179.887,295.644 L 170.862,298.101 C 170.058,298.32 169.472,299.013 169.393,299.842 C 169.071,303.226 165.616,323.154 165.581,323.356 C 165.464,324.029 165.698,324.714 166.202,325.174 C 166.706,325.635 167.411,325.806 168.069,325.629 L 168.761,325.443 C 168.801,325.864 168.827,326.277 168.827,326.679 C 168.827,330.16 167.373,333.002 165.746,336.178 C 164.133,339.331 162.312,342.907 161.906,347.434 C 161.846,347.8 161.81,348.16 161.81,348.505 C 161.81,350.54 162.831,352.22 164.759,353.309 C 165.866,353.934 167.282,354.338 168.899,354.563 C 168.787,354.829 168.67,355.104 168.548,355.39 C 166.233,360.831 162.03,370.719 162.97,379.501 L 162.326,380.522 C 160.847,382.761 157.973,387.109 157.973,392.252 C 157.973,395.92 159.474,399.992 163.948,403.993 C 163.929,404.209 163.866,404.427 163.866,404.641 C 163.866,406.778 164.767,408.863 166.559,410.864 C 172.672,417.688 208.407,437.372 233.981,436.089 C 244.136,435.58 251.769,431.919 256.665,425.208 C 256.849,424.957 256.962,424.668 257.015,424.365 C 280.015,430.115 298.437,427.85 311.763,417.58 L 311.935,417.447 C 317.867,412.885 313.742,399.797 313.449,398.905 C 314.484,392.191 311.025,384.607 308.92,382.082 C 308.838,381.982 308.746,381.892 308.645,381.811 C 304.811,378.692 299.651,377.021 293.282,376.787 C 293.858,375.323 294.077,373.75 293.905,372.118 C 293.546,368.75 291.596,365.642 289.874,363.737 C 298.772,351.173 304.204,338.915 307.206,327.343 C 313.786,328.712 318.405,327.79 320.936,324.585 C 325.561,318.731 321.883,307.276 315.895,294.669 C 317.491,292.506 319.811,289.252 320.256,288.065 C 320.551,287.279 320.322,286.392 319.686,285.844 C 318.858,285.135 315.174,280.223 314.688,279.339 L 314.69,279.345 C 311.385,271.401 306.817,270.14 304.42,269.741 C 302.19,263.422 299.672,258.151 297.512,254.203 C 299.629,252.731 302.326,250.552 303.178,249.358 C 307.475,242.643 315.514,230.074 315.514,215.433 C 315.514,212.287 315.143,209.046 314.284,205.746 C 310.934,192.881 300.677,181.414 283.78,171.62 C 282.229,166.087 279.846,161.985 277.2,158.931 C 277.047,158.749 275.254,156.896 275.043,156.706 z "
   id="path81" />
				<path
   d="M 310.748,280.626 C 310.73,280.583 310.715,280.54 310.701,280.496 C 310.996,281.386 313.877,285.225 315.652,287.31 C 315.166,288.066 314.431,289.127 313.619,290.265 C 312.826,288.682 312.008,287.089 311.176,285.494 C 310.192,283.607 309.174,281.656 309.03,281.18 C 308.78,280.348 308.028,279.789 307.202,279.742 C 306.729,277.781 306.216,275.884 305.667,274.063 C 307.26,274.885 309.105,276.634 310.748,280.626 z "
   style="fill:#160967"
   id="path83" />
				<path
   d="M 191.427,205.571 C 191.195,205.2 191.083,204.725 191.05,204.191 C 190.885,203.343 191.293,202.326 191.267,202.261 C 191.435,201.621 191.686,200.93 192.019,200.196 C 194.15,197.107 196.8,195.333 199.908,194.947 C 202.303,194.65 204.629,195.223 206.315,195.885 C 204.317,196.799 202.529,197.969 201.25,198.81 L 200.675,199.187 C 200.621,199.221 200.565,199.262 200.516,199.302 C 199.475,200.135 196.007,203.559 194.889,207.308 C 193.154,207.014 191.966,206.431 191.427,205.571 z "
   style="fill:#f1c581"
   id="path85" />
				<path
   d="M 183.376,200.972 C 182.53,200.154 182.901,198.16 183.196,197.044 C 183.565,195.654 184.438,194.657 185.868,193.997 C 187.985,193.018 190.827,192.927 193.43,193.19 C 191.763,194.285 190.112,195.85 188.606,198.077 C 188.547,198.165 188.496,198.257 188.451,198.352 C 187.92,199.49 187.564,200.523 187.339,201.462 C 185.709,201.729 184.08,201.652 183.376,200.972 z "
   style="fill:#f1c581"
   id="path87" />
				<path
   d="M 199.023,210.731 C 198.448,210.343 198.51,208.656 198.826,208.101 C 199.635,205.857 201.92,203.323 202.969,202.466 C 203.117,202.369 203.447,202.153 203.447,202.153 C 207.389,199.563 211.811,197.007 214.38,199.473 C 214.89,199.961 215.114,200.45 215.109,201.053 C 215.082,203.639 211.157,207.257 209.867,208.446 L 209.744,208.561 C 206.078,211.718 200.501,211.267 199.023,210.731 z "
   style="fill:#f1c581"
   id="path89" />
				<path
   d="M 197.531,214.437 C 200.468,215.503 207.555,215.726 212.404,211.546 C 212.455,211.501 212.576,211.388 212.576,211.388 C 214.512,209.605 218.356,206.05 219.004,202.139 C 231.59,192.074 242.236,188.837 250.639,188.73 C 251.199,188.657 252.636,188.782 253.45,188.839 C 253.462,188.839 253.464,188.821 253.471,188.814 C 260.282,189.307 265.389,191.812 268.586,193.958 C 256.857,203.564 246.404,217.592 241.907,223.631 C 241.907,223.631 240.652,225.296 240.572,225.402 C 213.189,255.125 193.035,246.489 184.658,240.29 C 188.322,229.646 194.867,218.542 197.531,214.437 z "
   style="fill:#f1c581"
   id="path91" />
				<path
   d="M 224.717,164.945 C 224.715,164.936 224.722,164.923 224.714,164.919 C 223.974,164.55 223.372,163.884 222.763,163.368 C 220.65,161.033 217.053,156.439 214.858,153.464 C 215.648,153.393 216.39,153.319 217.073,153.245 C 224.318,157.007 228.58,156.928 234.62,155.296 C 236.783,154.71 238.765,153.782 240.497,152.724 C 239.818,157.902 238.025,166.469 234.803,172.497 C 230.982,167.275 226.699,165.663 224.717,164.945 z "
   style="fill:#f1c581"
   id="path93" />
				<path
   d="M 245.582,225.398 C 255.436,212.233 264.276,202.512 272.028,196.307 C 272.698,195.656 273.76,194.843 274.411,194.489 C 274.429,194.477 274.446,194.464 274.464,194.451 C 278.954,194.481 301.325,196.119 303.573,225.425 C 303.145,228.443 300.762,231.183 296.811,233.152 C 287.611,237.73 268.787,238.343 245.582,225.398 z "
   style="fill:#f1c581"
   id="path95" />
				<path
   d="M 265.965,187.923 C 262.422,186.289 257.922,184.927 252.541,184.71 C 251.115,182.664 250.671,180.651 250.671,179.016 C 250.671,177.703 250.946,176.66 251.201,176.006 C 253.031,175.942 264.38,175.543 266.124,175.482 C 266.69,176.457 267.708,178.609 267.708,181.486 C 267.709,183.371 267.264,185.563 265.965,187.923 z "
   style="fill:#fdcc12"
   id="path97" />
				<path
   d="M 186.247,260.557 C 185.691,260.458 185.164,260.328 184.621,260.217 C 183.824,259.295 183.01,258.242 182.797,257.79 C 182.297,256.371 182.067,254.759 182.067,253.001 C 182.067,250.359 182.578,247.397 183.414,244.312 C 187.865,247.363 194.688,250.62 203.421,250.511 C 195.177,258.486 188.786,260.963 186.247,260.557 z "
   style="fill:#1c3193"
   id="path99" />
				<path
   d="M 282.291,240.079 C 289.066,240.03 294.627,238.706 298.592,236.731 C 301.223,235.422 303.336,233.793 304.86,231.935 C 302.737,238.633 298.61,249.897 292.965,251.252 C 287.799,252.492 284.656,246.494 282.291,240.079 z "
   style="fill:#1c3193"
   id="path101" />
				<path
   d="M 288.072,184.207 C 282.795,184.716 277.261,187.495 271.896,191.396 C 271.201,190.887 270.398,190.346 269.496,189.798 C 274.355,180.87 269.789,172.944 268.322,171.844 C 267.957,171.571 267.508,171.43 267.052,171.446 L 249.938,172.048 C 249.432,172.066 248.952,172.275 248.594,172.632 C 247.122,174.104 245.453,179.392 247.99,184.813 C 245.634,185.001 243.139,185.415 240.512,186.111 C 239.737,182.58 238.719,179.65 237.569,177.207 C 239.153,176.083 240.737,173.718 243.138,170 C 246.303,165.1 251.081,157.701 254.22,159.167 C 256.583,160.661 266.781,164.803 273.984,161.316 C 275.701,163.327 277.285,165.867 278.543,169.08 C 277.979,169.192 273.697,171.269 274.26,171.532 C 275.198,171.97 277.012,172.271 277.987,172.795 C 278.706,173.181 279.395,173.574 280.092,173.965 C 280.447,174.157 281.926,175.015 282.192,175.172 C 297.7,184.309 307.102,194.805 310.126,206.424 C 311.989,213.576 311.265,220.52 309.446,226.733 C 309.233,226.535 308.977,226.376 308.682,226.286 C 308.282,226.164 307.871,226.173 307.502,226.287 C 307.529,226.116 307.563,225.946 307.584,225.774 C 307.6,225.646 307.602,225.517 307.592,225.388 C 305.707,199.248 289.307,192.627 279.971,190.983 C 283.012,189.379 285.844,188.442 288.457,188.19 C 289.322,188.095 293.447,187.22 294.822,187.658 C 293.197,185.844 291.447,184.133 288.072,184.207 z "
   style="fill:#3398c3"
   id="path103" />
				<path
   d="M 258.609,152.026 C 258.841,152.536 259.109,152.862 259.642,153.036 L 261.173,153.535 C 263.243,154.138 267.052,155.25 270.806,158.241 C 265.201,159.779 257.314,156.515 256.322,155.782 C 256.218,155.707 256.074,155.614 255.959,155.559 C 250.796,153.095 246.198,158.314 242.289,164.02 C 243.958,157.948 244.712,152.102 244.805,149.416 C 245.768,148.49 246.513,147.611 246.984,146.903 C 248.81,146.017 250.538,145.138 252.22,144.261 C 254.629,146.251 257.33,149.209 258.609,152.026 z "
   style="fill:#3398c3"
   id="path105" />
				<path
   d="M 228.332,16.424 C 242.486,8.344 268.618,-2.57 284.725,14.985 C 285.246,15.659 286.75,18.628 286.75,22.954 C 286.75,24.133 286.637,25.412 286.363,26.77 C 285.111,32.958 280.142,42.191 263.742,51.404 C 252.262,32.375 228.86,25.361 217.747,23.049 C 220.07,21.412 222.382,19.895 224.668,18.525 C 225.032,18.512 225.398,18.405 225.723,18.184 C 225.962,18.021 226.153,17.813 226.296,17.581 C 226.663,17.371 227.032,17.15 227.398,16.949 C 227.363,16.968 228.332,16.424 228.332,16.424 z "
   style="fill:#0d0733"
   id="path107" />
				<path
   d="M 157.763,121.329 C 157.747,120.452 157.167,119.688 156.324,119.444 L 155.894,119.32 C 139.041,114.467 130.115,107.497 130.757,99.695 C 130.823,99.123 132.107,94.497 135.7,91.951 C 137.936,90.366 140.668,89.928 143.817,90.647 C 143.937,90.674 144.141,90.692 144.263,90.697 L 144.178,90.694 C 145.241,90.814 150.126,92.647 151.403,94.156 C 152.117,94.999 153.379,95.104 154.222,94.391 C 155.065,93.678 155.17,92.416 154.457,91.572 C 153.918,90.935 153.141,90.328 152.254,89.769 C 152.582,89.655 152.885,89.455 153.123,89.156 L 154.189,87.818 C 167.348,71.14 190.615,43.611 213.363,26.27 C 222.474,27.64 262.485,35.723 266.106,71.069 C 266.446,78.487 270.016,85.243 273.467,91.777 C 277.746,99.873 281.787,107.52 279.115,115.642 C 276.129,124.717 264.881,133.851 244.728,143.565 C 244.329,143.756 244.005,144.076 243.807,144.471 C 243.313,145.459 239.341,149.876 233.574,151.436 C 227.943,152.957 224.801,152.884 218.375,149.437 C 218.02,149.247 217.618,149.166 217.217,149.21 L 216.922,149.242 C 208.494,150.166 179.901,152.221 165.854,139.853 C 160.624,135.247 157.902,129.016 157.763,121.329 z "
   style="fill:#f1c581"
   id="path109" />
				<path
   d="M 210.216,153.8 C 211.859,156.198 215.71,161.366 218.775,164.876 C 216.007,166.331 212.565,168.616 208.986,170.993 C 205.195,173.513 199.685,177.164 197.484,177.831 C 194.812,172.087 186.436,161.696 183.088,157.832 C 182.511,157.219 182.976,156.012 182.936,155.95 C 183.199,154.909 183.55,153.604 183.975,152.225 C 193.252,154.134 202.912,154.202 210.216,153.8 z "
   style="fill:#3398c3"
   id="path111" />
				<path
   d="M 150.506,225.535 C 147.436,211.487 149.278,197.397 150.214,191.991 L 150.235,191.87 C 152.742,176.828 172.841,164.11 179.793,160.124 C 180.984,161.476 183.072,163.999 185.305,166.872 C 177.141,171.278 166.318,181.634 165.02,183.303 C 164.342,184.175 164.499,185.432 165.371,186.11 C 166.243,186.789 167.5,186.631 168.178,185.759 C 169.243,184.388 180.278,173.89 187.759,170.099 C 190.697,174.056 193.413,178.099 194.213,180.364 C 194.305,180.624 194.449,180.862 194.638,181.063 C 196.997,183.59 201.42,180.824 211.201,174.326 C 214.95,171.835 219.106,169.074 221.714,167.871 C 221.991,168.093 222.237,168.262 222.439,168.353 L 223.269,168.675 C 225.84,169.605 233.505,172.378 236.683,187.304 C 231.027,189.313 224.824,192.638 218.124,197.765 C 217.853,197.349 217.532,196.954 217.151,196.588 C 215.499,195.003 213.614,194.448 211.701,194.487 C 210.43,193.139 206.19,190.993 201.684,190.871 C 201.514,190.866 201.338,190.868 201.162,190.869 C 197.991,189.565 189.677,187.829 184.19,190.366 C 181.686,191.524 180.005,193.479 179.333,196.018 C 178.407,199.504 178.832,202.137 180.595,203.845 C 182.404,205.597 185.081,205.754 187.186,205.52 C 187.368,206.409 187.687,207.131 188.04,207.694 C 189.281,209.674 191.561,210.883 194.802,211.329 C 194.803,211.331 194.803,211.333 194.804,211.335 C 192.278,215.038 185.002,227.023 180.941,238.96 C 180.731,239.085 180.537,239.248 180.374,239.453 C 179.906,240.039 179.852,240.821 180.129,241.479 C 178.218,247.85 177.41,254.022 178.909,258.728 C 163.81,253.825 154.257,242.696 150.506,225.535 z "
   style="fill:#3398c3"
   id="path113" />
				<path
   d="M 172.917,301.275 C 174.973,300.716 191.297,296.272 196.35,294.897 C 194.95,299.717 190.983,313.368 190.493,315.058 C 188.757,315.524 174.196,319.433 169.767,320.621 C 170.644,315.506 172.343,305.474 172.917,301.275 z "
   style="fill:#160967"
   id="path115" />
				<path
   d="M 199.54,314.351 C 199.54,324.491 198.086,336.166 193.041,345.186 C 192.445,345.654 191.584,346.131 190.54,346.598 C 183.203,342.451 187.375,331.987 194.071,317.663 C 196.013,313.509 197.869,309.517 199.211,305.809 C 199.41,308.447 199.54,311.326 199.54,314.351 z "
   style="fill:#1c3193"
   id="path117" />
				<path
   d="M 165.568,347.71 C 165.578,347.651 165.586,347.593 165.59,347.533 C 165.911,343.743 167.422,340.793 169.021,337.669 C 171.053,333.698 173.138,329.603 172.377,324.063 L 188.727,319.674 C 183.75,330.535 179.417,341.916 186.034,348.22 C 181.496,349.562 175.879,350.537 171.601,350.477 C 171.533,350.471 171.466,350.473 171.399,350.474 C 169.317,350.428 167.566,350.13 166.441,349.495 C 165.644,349.044 165.416,348.577 165.568,347.71 z "
   style="fill:#160967"
   id="path119" />
				<path
   d="M 233.496,431.764 C 208.381,433.023 173.907,413.058 169.254,407.864 C 167.92,406.375 167.582,405.194 167.582,404.3 C 167.582,404.112 167.621,403.972 167.645,403.809 C 167.812,404.054 168.006,404.287 168.282,404.442 C 194.922,419.469 217.019,426.583 233.96,425.584 C 241.492,425.14 247.697,423.083 252.51,419.508 C 252.615,421.271 252.686,422.436 252.721,423.036 C 248.551,428.381 242.102,431.332 233.496,431.764 z "
   style="fill:#9a9999"
   id="path121" />
				<path
   d="M 248.316,388.891 C 248.394,388.957 248.481,389.015 248.572,389.07 C 248.677,389.145 248.79,389.216 248.894,389.295 C 248.98,389.36 249.057,389.43 249.142,389.496 C 243.863,389.255 239.125,389.813 235.02,391.125 L 222.327,386.481 C 232.841,384.773 242.464,384.927 248.316,388.891 z "
   style="fill:#cccbcb"
   id="path123" />
				<path
   d="M 288.848,380.524 C 286.231,381.668 283.323,383.247 280.727,385.402 L 271.764,383.829 C 278.129,381.926 283.861,380.81 288.848,380.524 z "
   style="fill:#cccbcb"
   id="path125" />
				<path
   d="M 265.711,385.812 L 278.074,387.983 C 276.654,389.602 275.441,391.452 274.613,393.598 C 272.304,399.578 273.283,406.666 277.496,414.69 C 274.086,414.546 270.322,414.024 266.197,413.001 C 264.75,410.435 265.33,397.05 266.996,394.798 C 267.275,394.418 267.361,393.929 267.226,393.477 C 267.091,393.025 266.749,392.663 266.308,392.499 C 264.156,391.706 260.904,393.1 257.638,394.83 C 257.064,393.147 256.249,391.523 255.15,390.005 C 258.814,388.411 262.342,387.009 265.711,385.812 z "
   style="fill:#cccbcb"
   id="path127" />
				<path
   d="M 220.987,420.879 C 220.245,411.31 222.267,404.028 227.019,399.242 C 229.165,397.08 231.858,395.429 235.018,394.29 C 235.276,394.187 235.979,393.984 236.361,393.847 C 240.523,392.59 245.423,392.161 250.945,392.616 L 251.461,392.655 C 251.668,392.671 251.866,392.642 252.047,392.58 C 256.594,399.179 254.592,408.518 252.709,414.09 L 252.539,414.256 C 248.707,418.093 239.646,423.771 220.987,420.879 z "
   style="fill:#9a9999"
   id="path129" />
				<path
   d="M 258.408,397.82 L 258.484,397.78 C 260.927,396.459 262.48,395.818 263.539,395.509 C 262.783,398.224 262.361,402.281 262.361,406.038 C 262.361,408.289 262.511,410.419 262.826,412.073 C 261.232,411.593 259.586,411.037 257.89,410.402 C 258.74,406.578 259.197,402.12 258.408,397.82 z "
   style="fill:#ff0000"
   id="path131" />
				<path
   d="M 216.627,387.559 C 216.711,387.611 216.802,387.656 216.898,387.691 L 230.887,392.808 C 228.617,393.961 226.606,395.399 224.888,397.129 C 219.627,402.429 217.297,410.239 217.94,420.346 C 213.961,419.572 209.578,418.423 204.758,416.817 C 203.585,413.475 205.486,404.174 209.998,399.442 C 210.437,398.981 210.538,398.292 210.248,397.724 C 209.959,397.157 209.342,396.834 208.71,396.92 C 195.049,398.782 193.481,408.617 193.031,412.337 C 190.677,411.331 188.236,410.229 185.709,409.024 C 186.092,408.147 186.715,406.822 187.217,405.756 C 188.754,402.494 189.547,400.198 190.004,399.221 C 190.238,398.722 192.904,394.949 193.4,394.349 C 200.574,391.788 208.701,389.263 216.627,387.559 z "
   style="fill:#cccbcb"
   id="path133" />
				<path
   d="M 201.493,415.683 C 199.689,415.032 197.83,414.318 195.91,413.537 L 195.972,413.022 C 196.327,409.989 197.113,403.378 205.326,400.737 C 202.82,404.913 201.416,410.203 201.416,414.223 C 201.416,414.736 201.447,415.218 201.493,415.683 z "
   style="fill:#ff0000"
   id="path135" />
				<path
   d="M 187.072,398.592 C 186.902,399.389 185.459,402.451 184.505,404.478 C 183.842,405.885 183.352,406.933 183.01,407.715 C 179.878,406.17 176.616,404.472 173.219,402.608 C 176.16,401.194 181.537,398.82 188.185,396.278 C 187.603,397.088 187.23,397.857 187.072,398.592 z "
   style="fill:#ff0000"
   id="path137" />
				<path
   d="M 309.211,413.946 L 309.037,414.081 C 296.508,423.735 278.844,425.678 256.539,419.87 L 256.303,415.938 C 256.485,415.418 256.668,414.867 256.85,414.284 C 276.903,421.69 290.504,418.493 298.44,414.428 C 304.098,411.529 308.067,407.651 310.452,404.331 C 311.051,408.029 311.137,412.466 309.211,413.946 z "
   style="fill:#9a9999"
   id="path139" />
				<path
   d="M 309.387,395.957 C 309.387,396.804 309.311,397.643 309.141,398.452 C 308.596,400.557 304.651,406.751 296.616,410.867 C 292.856,412.794 287.669,414.494 280.923,414.709 C 276.487,406.889 275.3,400.151 277.413,394.679 C 278.339,392.28 279.854,390.283 281.634,388.608 C 281.634,388.608 283.23,387.219 283.527,387.01 C 288.101,383.558 293.623,381.849 296.019,381.112 L 296.763,380.867 C 300.357,381.448 303.363,382.642 305.689,384.489 C 306.992,386.178 309.387,391.182 309.387,395.957 z "
   style="fill:#9a9999"
   id="path141" />
				<path
   d="M 317.512,321.774 C 315.696,324.072 311.524,323.876 307.842,323.121 C 309.36,316.092 310.004,309.339 310.004,302.953 C 310.004,298.546 309.69,294.326 309.162,290.301 C 309.769,291.489 310.433,292.804 311.121,294.215 C 311.117,294.265 311.098,294.313 311.098,294.362 C 311.098,294.97 311.375,295.571 311.899,295.964 C 311.928,295.985 311.96,295.999 311.991,296.019 C 316.365,305.246 321.047,317.299 317.512,321.774 z "
   style="fill:#160967"
   id="path143" />
				<path
   d="M 161.605,347.195 C 161.607,347.162 161.617,347.134 161.621,347.101 C 161.625,347.073 161.623,347.046 161.629,347.018 C 161.618,347.077 161.61,347.136 161.605,347.195 z "
   style="fill:#ff0000"
   id="path145" />
				<g
   id="g147">
					<path
   d="M 237.203,36.805 C 236.055,37.376 235.148,38.079 234.42,38.644 C 232.774,39.921 232.522,40.118 230.336,38.889 C 223.197,34.873 218.268,37.83 215.322,39.598 C 213.383,40.762 210.275,39.651 209.076,38.931 L 205.988,44.077 C 208.502,45.584 213.945,47.421 218.409,44.743 C 221.437,42.926 223.492,41.924 227.394,44.119 C 233.051,47.301 236.087,44.944 238.097,43.386 C 238.696,42.922 239.261,42.484 239.874,42.178 C 241.248,41.495 242.374,42.004 245.009,43.52 L 246.075,44.126 C 251.669,47.234 258.775,41.374 259.566,40.695 L 255.662,36.139 C 253.316,38.15 250.072,39.483 248.988,38.881 L 248.002,38.319 C 245.143,36.673 241.585,34.625 237.203,36.805 z "
   id="path149" />
					<path
   d="M 229.066,25.434 C 227.918,26.005 227.011,26.708 226.283,27.273 C 224.637,28.55 224.385,28.747 222.199,27.518 C 215.06,23.502 210.131,26.459 207.185,28.226 L 210.272,33.372 C 213.3,31.555 215.355,30.552 219.257,32.747 C 224.914,35.929 227.951,33.573 229.96,32.014 C 230.559,31.55 231.124,31.112 231.737,30.806 C 233.111,30.123 234.237,30.632 236.872,32.148 L 237.938,32.754 C 243.532,35.861 250.637,30.002 251.429,29.323 L 247.525,24.767 C 245.178,26.778 241.934,28.111 240.85,27.509 L 239.864,26.948 C 237.006,25.302 233.449,23.254 229.066,25.434 z "
   id="path151" />
					<path
   d="M 244.948,72.364 C 244.948,72.364 247.505,68.001 257.948,68.697 C 262.948,69.03 264.616,74.03 264.616,75.364 C 260.282,72.364 252.282,72.031 243.282,77.031 L 244.948,72.364 z "
   id="path153" />
					<path
   d="M 198.057,78.892 C 198.057,78.892 202.262,73.574 212.615,72.031 C 217.571,71.292 220.264,75.822 220.549,77.124 C 209.465,72.557 196.07,86.35 197.948,84.697 L 198.057,78.892 z "
   id="path155" />
					<circle
   cx="210.948"
   cy="97.364998"
   r="3.6670001"
   id="circle157" /> 
					<circle
   cx="256.28101"
   cy="91.697998"
   r="3.6659999"
   id="circle159" /> 
					<path
   d="M 151.948,103.698 C 147.948,92.365 137.281,98.365 136.281,100.031 C 137.171,100.179 139.512,100.395 142.218,100.822 C 141.018,103.359 140.407,105.823 143.281,108.698 C 144.083,106.294 145.098,103.252 146.328,101.622 C 148.454,102.13 150.486,102.798 151.948,103.698 z "
   id="path161" />
				</g>
				<path
   d="M 164.546,174.003 C 165.317,175.548 166.708,176.724 168.461,177.31 C 170.628,178.035 173.153,177.81 175.389,176.693 C 177.623,175.58 179.32,173.697 180.044,171.531 C 180.63,169.777 180.528,167.959 179.757,166.412 C 178.985,164.865 177.594,163.691 175.84,163.105 C 173.673,162.38 171.15,162.605 168.913,163.72 C 166.679,164.835 164.981,166.716 164.258,168.884 C 163.671,170.638 163.774,172.454 164.546,174.003 z "
   id="path163" />
				<path
   d="M 167.103,169.835 C 167.578,168.417 168.725,167.167 170.253,166.403 C 171.781,165.641 173.472,165.475 174.889,165.95 C 175.592,166.184 176.541,166.688 177.072,167.751 C 177.603,168.815 177.435,169.876 177.199,170.579 C 176.726,171.997 175.578,173.247 174.051,174.009 C 172.522,174.773 170.83,174.939 169.413,174.464 C 168.711,174.23 167.762,173.726 167.23,172.663 C 166.7,171.599 166.869,170.538 167.103,169.835 z "
   style="fill:#fdcc12"
   id="path165" />
				<path
   d="M 173.509,311.327 C 174.28,312.873 175.671,314.048 177.424,314.634 C 179.591,315.359 182.116,315.134 184.352,314.018 C 186.586,312.904 188.283,311.022 189.007,308.856 C 189.593,307.102 189.491,305.284 188.72,303.737 C 187.948,302.19 186.557,301.015 184.803,300.429 C 182.636,299.705 180.113,299.929 177.876,301.045 C 175.642,302.159 173.944,304.041 173.221,306.208 C 172.634,307.962 172.737,309.779 173.509,311.327 z "
   id="path167" />
				<path
   d="M 176.066,307.159 C 176.541,305.741 177.688,304.491 179.216,303.728 C 180.744,302.965 182.435,302.8 183.852,303.274 C 184.555,303.508 185.504,304.012 186.035,305.076 C 186.566,306.139 186.398,307.201 186.162,307.904 C 185.689,309.321 184.541,310.571 183.014,311.334 C 181.485,312.097 179.793,312.263 178.376,311.789 C 177.674,311.554 176.725,311.051 176.193,309.987 C 175.663,308.924 175.832,307.862 176.066,307.159 z "
   style="fill:#fdcc12"
   id="path169" />
				<g
   id="g171">
					<path
   d="M 160.568,174.461 C 155.513,179.52 151.275,185.483 150.211,191.87 L 150.19,191.991 C 149.254,197.397 147.412,211.487 150.482,225.535 C 154.233,242.696 163.786,253.825 178.881,258.728 C 177.382,254.022 178.189,247.85 180.101,241.479 C 179.824,240.821 179.878,240.039 180.345,239.453 C 180.509,239.248 180.702,239.085 180.913,238.96 C 181.239,237.999 181.594,237.04 181.958,236.083 C 156.832,223.585 159.355,186.41 160.568,174.461 z "
   style="fill:#3360aa"
   id="path173" />
					<path
   d="M 223.243,168.675 L 222.412,168.353 C 222.213,168.261 221.966,168.092 221.689,167.871 C 219.082,169.074 214.925,171.835 211.175,174.326 C 209.563,175.396 208.11,176.355 206.774,177.217 C 214.775,175.542 226.013,174.52 231.363,174.653 C 228.205,170.476 224.795,169.235 223.243,168.675 z "
   style="fill:#3360aa"
   id="path175" />
					<path
   d="M 274.65,162.165 C 274.421,161.872 274.193,161.589 273.961,161.315 C 266.756,164.801 256.559,160.66 254.195,159.166 C 251.058,157.7 246.278,165.099 243.114,169.999 C 242.994,170.185 242.884,170.353 242.768,170.532 C 246.721,168.596 252.142,166.403 254.257,165.698 C 257.102,164.749 268.633,166.786 274.65,162.165 z "
   style="fill:#3360aa"
   id="path177" />
				</g>
				<g
   id="g179">
					<path
   d="M 287.152,366.728 C 286.345,367.799 285.519,368.873 284.66,369.948 C 283.971,370.811 282.711,370.951 281.848,370.26 C 280.987,369.571 280.846,368.312 281.537,367.449 C 321.051,318.054 303.039,272.552 293.426,255.235 C 290.992,255.71 288.91,255.276 287.131,254.276 C 263.371,265.641 240.036,267.829 222.531,267.141 C 220.754,272.929 215.697,285.454 201.336,292.069 C 203.139,299.511 207.16,328.659 196.333,347.526 C 196.222,347.719 196.08,347.893 195.912,348.039 C 195.14,348.711 193.899,349.418 192.353,350.107 C 188.134,358.471 174.75,365.64 178.448,370.031 C 182.448,374.781 186.847,379.224 182.898,384.753 C 180.056,388.731 183.399,391.399 184.195,393.607 C 202.53,386.291 233.119,376.426 248.652,384.454 C 249.927,380.992 250.005,377.937 248.845,375.361 C 246.15,369.371 237.396,366.891 234.519,366.077 L 233.424,365.748 C 232.368,365.43 231.871,364.352 232.186,363.295 C 232.501,362.238 233.713,361.669 234.771,361.981 L 235.609,362.229 C 237.404,362.738 240.653,363.663 243.908,365.369 C 265.342,329.002 257.387,293.618 252.907,279.969 L 252.68,279.264 C 252.342,278.213 252.936,277.135 253.987,276.797 C 255.038,276.459 256.178,277.084 256.516,278.135 L 256.705,278.722 C 261.361,292.904 269.631,329.693 247.296,367.497 C 249.427,369.095 251.322,371.12 252.492,373.721 C 254.205,377.525 254.045,381.894 252.06,386.715 C 252.13,386.774 252.205,386.828 252.273,386.887 C 266.466,380.594 278.611,377.13 288.388,376.527 C 289.396,375.236 289.812,373.823 289.64,372.212 C 289.422,370.159 288.258,368.128 287.152,366.728 z "
   style="fill:#1c3193"
   id="path181" />
					<path
   d="M 222.531,267.142 C 206.499,266.512 195.356,263.47 193.268,262.853 C 190.899,263.968 188.734,264.567 186.878,264.582 C 185.41,269.31 182.159,285.053 183.485,294.254 L 198.714,290.108 C 198.72,290.106 198.726,290.107 198.732,290.105 C 198.738,290.104 198.743,290.1 198.749,290.098 C 198.914,290.054 199.078,290.039 199.241,290.037 C 199.245,290.037 199.248,290.037 199.252,290.037 C 200.141,290.032 200.957,290.616 201.197,291.515 C 201.241,291.681 201.289,291.872 201.336,292.069 C 215.697,285.455 220.753,272.93 222.531,267.142 z "
   style="fill:#160967"
   id="path183" />
					<path
   d="M 182.898,384.753 C 186.847,379.225 182.448,374.781 178.448,370.031 C 174.751,365.64 188.135,358.471 192.353,350.107 C 187.464,352.287 179.44,354.29 172.854,354.439 C 172.609,355.054 172.304,355.776 171.943,356.623 C 169.156,363.177 163.355,376.811 168.761,384.922 C 169.374,385.841 169.126,387.083 168.206,387.695 C 167.288,388.307 166.046,388.059 165.433,387.14 C 164.874,386.302 164.416,385.426 164.034,384.523 C 162.843,386.542 161.701,389.03 161.701,391.786 C 161.701,394.754 163.024,398.023 167.035,401.319 C 167.226,401.476 167.358,401.68 167.476,401.888 C 167.501,401.831 167.492,401.77 167.522,401.715 C 167.761,401.291 168.136,400.996 168.558,400.836 C 168.732,400.548 168.972,400.295 169.287,400.118 C 169.467,400.017 175.433,397.102 184.195,393.606 C 183.399,391.398 180.056,388.73 182.898,384.753 z "
   style="fill:#160967"
   id="path185" />
				</g>
				<g
   id="g187">
					<path
   d="M 246.116,252.451 C 246.495,243.745 245.34,233.2 244.084,229.145 C 243.75,228.96 243.414,228.766 243.078,228.577 C 230.434,242.158 219.125,248.089 209.603,249.885 C 205.763,254.048 201.862,257.484 198.211,259.979 C 203.355,261.135 213.21,262.911 225.773,263.128 C 228.683,259.967 232.435,256.381 233.448,255.031 C 238.63,254.605 242.78,253.651 246.116,252.451 z "
   style="fill:#3360aa"
   id="path189" />
					<path
   d="M 259.248,243.132 C 267.633,246.232 273.291,250.987 276.574,254.449 C 278.97,253.527 281.375,252.54 283.781,251.432 C 280.836,247.973 279.109,243.103 278.113,240.291 L 277.986,239.944 C 269.578,239.365 259.634,236.896 248.715,231.553 C 249.609,236.431 250.331,243.795 250.195,250.674 C 255.635,247.852 258.023,244.518 259.248,243.132 z "
   style="fill:#3360aa"
   id="path191" />
					<path
   d="M 244.578,262.234 C 245.477,259.823 245.947,256.318 246.116,252.451 C 242.78,253.651 238.631,254.605 233.448,255.031 C 232.435,256.381 228.683,259.967 225.773,263.128 C 231.536,263.229 237.868,263.001 244.578,262.234 z "
   style="fill:#3398c3"
   id="path193" />
					<path
   d="M 276.574,254.449 C 273.291,250.987 267.633,246.231 259.248,243.132 C 258.023,244.518 255.635,247.852 250.196,250.676 C 250.117,254.705 249.744,258.569 248.935,261.667 C 257.732,260.377 267.084,258.101 276.574,254.449 z "
   style="fill:#3398c3"
   id="path195" />
				</g>
				<path
   d="M 195.553,4.754 C 184.394,2.69 167.734,2.561 151.766,13.654 C 150.726,14.403 146.236,18.55 141.359,24.383 C 141.897,30.285 142.306,40.487 146.941,42.793 C 152.948,45.782 168.666,40.451 160.129,49.464 C 152.098,57.943 156.363,62.034 166.471,66.652 C 178.867,52.293 194.274,36.069 209.631,24.106 C 209.629,24.057 209.619,24.01 209.621,23.96 C 209.661,22.872 210.543,22.014 211.632,22.033 C 211.663,22.033 211.883,22.055 212.256,22.103 C 215.291,19.836 218.317,17.76 221.311,15.902 C 217.427,12.409 208.208,7.095 195.553,4.754 z "
   style="fill:#ff0000"
   id="path197" />
				<path
   d="M 160.128,49.463 C 168.665,40.45 152.947,45.781 146.94,42.792 C 142.305,40.486 141.896,30.284 141.358,24.382 C 134.276,32.851 126.378,44.873 127.042,55.216 C 127.394,60.706 130.153,65.03 135.441,68.389 C 136.696,63.361 138.905,59.33 140.318,57.101 L 140.401,56.97 C 140.991,56.036 142.231,55.75 143.165,56.34 C 144.099,56.929 144.383,58.156 143.793,59.09 L 143.696,59.243 C 141.178,63.215 135.788,73.622 140.12,84.453 C 140.382,85.106 140.272,85.813 139.894,86.348 C 141.372,86.238 142.927,86.36 144.555,86.718 C 145.545,86.834 147.624,87.466 149.694,88.406 C 149.53,87.791 149.65,87.099 150.07,86.572 L 151.05,85.339 C 155.27,79.99 160.526,73.533 166.469,66.65 C 156.363,62.033 152.097,57.942 160.128,49.463 z "
   style="fill:#cb1009"
   id="path199" />
				<path
   d="M 259.1,111.903 C 258.477,110.991 257.233,110.757 256.321,111.38 C 238.887,123.276 221.04,119.513 214.306,117.403 C 215.418,115.841 216.333,114.196 216.655,112.7 C 216.885,111.62 216.198,110.557 215.118,110.325 C 214.038,110.095 212.975,110.782 212.743,111.862 C 212.181,114.485 207.772,119.191 205.647,121.012 C 204.809,121.731 204.711,122.993 205.43,123.832 C 206.149,124.67 207.411,124.768 208.25,124.049 C 208.283,124.02 209.832,122.651 211.599,120.715 C 213.108,121.249 215.639,122.032 218.916,122.66 C 220.686,131.788 225.829,141.575 234.93,140.517 C 239.221,140.017 242.877,137.57 245.501,133.437 C 248.26,129.092 249.486,123.384 249.195,119.769 C 252.297,118.479 255.442,116.82 258.576,114.681 C 259.488,114.061 259.723,112.816 259.1,111.903 z "
   id="path201" />
				<path
   d="M 242.124,131.294 C 240.141,134.418 237.564,136.185 234.467,136.544 C 227.44,137.362 224.285,127.955 223.161,123.308 C 229.269,124.002 236.994,123.865 245.224,121.23 C 245.138,123.751 244.33,127.821 242.124,131.294 z "
   style="fill:#ffffff"
   id="path203" />
				<path
   d="M 251.159,99.639 L 251.28,99.923 C 251.758,101.118 252.877,103.918 251.364,106.798 C 249.912,109.562 246.567,111.503 241.139,112.732 C 234.436,114.25 229.8,113.824 226.966,111.43 C 223.825,108.778 224.047,104.723 224.165,102.545 L 224.197,101.781 C 224.243,100.678 225.175,99.742 226.276,99.786 C 227.38,99.83 228.239,100.679 228.197,101.781 L 228.159,102.763 C 228.067,104.453 227.928,107.007 229.546,108.374 C 230.774,109.411 233.628,110.331 240.256,108.831 C 245.435,107.658 247.23,106.066 247.823,104.936 C 248.427,103.785 248.046,102.611 247.565,101.408 C 247.515,101.15 246.794,99.93 248.669,99.116 C 249.121,98.921 250.726,98.534 251.159,99.639 z "
   id="path205" />
			</g>
		</g>
	</svg>